<svg xmlns="http://www.w3.org/2000/svg" viewBox="0 0 731.65 159.6"><defs><style>.cls-1{fill:#e2e2e2;}</style></defs><g id="Ebene_2" data-name="Ebene 2"><g id="Ebene_1-2" data-name="Ebene 1"><path class="cls-1" d="M182.43,110.32a32.76,32.76,0,0,1-15.57-3.54,26.6,26.6,0,0,1-10.4-9.5A45.12,45.12,0,0,1,151,84.47a58.82,58.82,0,0,1-1.74-14.62A54,54,0,0,1,151.06,56,49.36,49.36,0,0,1,156.57,43,27.83,27.83,0,0,1,167,33.15a31,31,0,0,1,15.46-3.76q10.66,0,18.21,5.5a30.51,30.51,0,0,1,10.67,13.38L196,55.13A30,30,0,0,0,189.79,48a11.93,11.93,0,0,0-7.36-2.24A12.47,12.47,0,0,0,175.12,48a14.2,14.2,0,0,0-4.83,5.84,33.88,33.88,0,0,0-2.48,7.65,43.56,43.56,0,0,0-.78,8.37,40.54,40.54,0,0,0,1.51,11.24,21.15,21.15,0,0,0,5.17,9,11.74,11.74,0,0,0,8.72,3.77q7.31,0,13.37-10.12l15.63,5.85Q201.88,110.33,182.43,110.32Z"/><path class="cls-1" d="M255.94,109.2v-4.28q-5.17,5.63-14.28,5.62-9.56,0-15.56-4.88t-6-14q0-8.88,7-13.66a28.17,28.17,0,0,1,16.3-4.78q8.1,0,12.59,2V72.1a7.43,7.43,0,0,0-2.47-6A10.33,10.33,0,0,0,246.61,64q-9.33,0-18.43,6.07L223.12,57.6a42.71,42.71,0,0,1,24.61-7.19q24.41,0,24.4,22.48V109.2ZM244.81,96.83a17.4,17.4,0,0,0,11.13-4V87.61a33.9,33.9,0,0,0-9.78-1.35q-10.11,0-10.12,5.51Q236,96.84,244.81,96.83Z"/><path class="cls-1" d="M305.18,110.54q-14.51,0-14.51-15.73V66h-7.86V51.75h7.86v-16L306.86,28V51.75h12.48V66H306.86v27.2a3,3,0,0,0,1,2.42,3.35,3.35,0,0,0,2.3.84A23.66,23.66,0,0,0,320,94.25L318.22,108A29.6,29.6,0,0,1,305.18,110.54Z"/><path class="cls-1" d="M363.29,110.32a32.81,32.81,0,0,1-15.57-3.54,26.67,26.67,0,0,1-10.4-9.5,45.12,45.12,0,0,1-5.45-12.81,59.29,59.29,0,0,1-1.74-14.62A54,54,0,0,1,331.93,56,49,49,0,0,1,337.44,43a27.8,27.8,0,0,1,10.39-9.89,31,31,0,0,1,15.46-3.76q10.68,0,18.21,5.5a30.6,30.6,0,0,1,10.68,13.38l-15.29,6.86A29.52,29.52,0,0,0,370.65,48a11.91,11.91,0,0,0-7.36-2.24A12.49,12.49,0,0,0,356,48a14.2,14.2,0,0,0-4.83,5.84,33.85,33.85,0,0,0-2.47,7.65,42.76,42.76,0,0,0-.79,8.37,40.54,40.54,0,0,0,1.52,11.24,21,21,0,0,0,5.17,9,11.72,11.72,0,0,0,8.71,3.77q7.31,0,13.38-10.12l15.62,5.85Q382.74,110.33,363.29,110.32Z"/><path class="cls-1" d="M404.32,109.2V51.75h16.3v5.18a12.81,12.81,0,0,1,4-4.39,11.35,11.35,0,0,1,6.86-2.13,15.06,15.06,0,0,1,11.35,4.83l-2.13,14.84a15.65,15.65,0,0,0-10.23-3.94q-9.9,0-9.89,11.92V109.2Z"/><path class="cls-1" d="M461.08,131l8.66-22.48L448,51.75h16.87L476.6,82.44q1.23,3.38,1.79,5.4.57-2,1.8-5.4l11.58-30.69h16.75L478,131Z"/><path class="cls-1" d="M547.41,110.54q-7.41,0-11.35-5.05v18.77l-16.3,7.31V51.75h16.3v3.94q3.83-5.28,11.58-5.28,10.79,0,17.25,7.81t6.47,22.31q0,13.83-6.75,21.92A21.38,21.38,0,0,1,547.41,110.54Zm-2.58-15.73A8.75,8.75,0,0,0,552.36,91q2.7-3.77,2.7-10.51,0-14.39-10.23-14.39a11.45,11.45,0,0,0-8.77,3.49V91.1a5.92,5.92,0,0,0,3,2.58A13.21,13.21,0,0,0,544.83,94.81Z"/><path class="cls-1" d="M601.82,110.54q-14.51,0-14.5-15.73V66h-7.87V51.75h7.87v-16L603.51,28V51.75H616V66H603.51v27.2a3,3,0,0,0,1,2.42,3.39,3.39,0,0,0,2.31.84,23.72,23.72,0,0,0,9.89-2.24L614.86,108A29.57,29.57,0,0,1,601.82,110.54Z"/><path class="cls-1" d="M653.75,110.54q-12.71,0-20-8t-7.3-22.14q0-13.83,7.36-21.92t20-8.09q11.47,0,18.66,7t7.2,20.24a59.41,59.41,0,0,1-.45,8.43H642.4q.23,5.4,3.37,8a12,12,0,0,0,8,2.64,16.07,16.07,0,0,0,12.93-6.07l9.44,9.44A27.69,27.69,0,0,1,653.75,110.54ZM642.51,73.79H664q-1.23-9.56-10.9-9.56a10.36,10.36,0,0,0-7.19,2.53A10.9,10.9,0,0,0,642.51,73.79Z"/><path class="cls-1" d="M693.1,109.2V51.75h16.3v5.18a12.71,12.71,0,0,1,4-4.39,11.35,11.35,0,0,1,6.86-2.13,15.06,15.06,0,0,1,11.35,4.83l-2.13,14.84a15.65,15.65,0,0,0-10.23-3.94q-9.9,0-9.89,11.92V109.2Z"/><path class="cls-1" d="M112.78,80.57l-4.34-25.3L88.13,28.19,52,0,47.36,20.63.64,6,15.47,26.58H7.56L17,35.92l17-7.73L6.1,55.59l-4.35,14L6.1,76.86,0,98.46l3.06,3.7,9.81-4.84L8.2,106.83H2.72l6,6.13,4.67.15,3.85,3.7,17.1-.79L25.77,147h0A16.88,16.88,0,0,0,52.46,156l60-46.57a18.45,18.45,0,0,0,.31-28.9ZM33.85,79.31V74.79l8.27-4.23Zm-5.44-5.49-1,7.61L23,79.63l-6.72,9.24,5.88-18,20-5.07ZM51.32,35.53,56,14.5,79.36,45.11,63.15,31.9ZM68,120.39l1.44-30.8,14.5-22.12Z"/></g></g></svg>