<svg xmlns="http://www.w3.org/2000/svg" viewBox="0 0 119.6 159.6"><defs><style>.cls-1{fill:#e2e2e2;}</style></defs><g id="Ebene_2" data-name="Ebene 2"><g id="Ebene_1-2" data-name="Ebene 1"><path class="cls-1" d="M112.78,80.57l-4.34-25.3L88.13,28.19,52,0,47.36,20.63.64,6,15.47,26.58H7.56L17,35.92l17-7.73L6.1,55.59l-4.35,14L6.1,76.86,0,98.46l3.06,3.7,9.81-4.84L8.2,106.83H2.72l6,6.13,4.67.15,3.85,3.7,17.1-.79L25.77,147h0A16.88,16.88,0,0,0,52.46,156l60-46.57a18.45,18.45,0,0,0,.31-28.9ZM33.85,79.31V74.79l8.27-4.23Zm-5.44-5.49-1,7.61L23,79.63l-6.72,9.24,5.88-18,20-5.07ZM51.32,35.53,56,14.5,79.36,45.11,63.15,31.9ZM68,120.39l1.44-30.8,14.5-22.12Z"/></g></g></svg>